<?xml version="1.0" encoding="utf-8"?>
<!-- Generator: Adobe Illustrator 27.7.0, SVG Export Plug-In . SVG Version: 6.00 Build 0)  -->
<svg version="1.1" id="Layer_1" xmlns="http://www.w3.org/2000/svg" xmlns:xlink="http://www.w3.org/1999/xlink" x="0px" y="0px"
	 viewBox="0 0 32 32" style="enable-background:new 0 0 32 32;" xml:space="preserve">
<g>
	<g>
		<path d="M24.9,14c-3.7,0-6.7,3-6.7,6.7c0,1.4,0.4,2.8,1.2,3.9l-4.9,4.9c-0.4,0.4-0.4,1.1,0,1.6l0,0c0.4,0.4,1.1,0.4,1.6,0l4.9-4.9
			c3.4,2.4,8.2,1.2,10-2.8c0.8-1.7,0.8-3.8-0.1-5.5C29.9,15.4,27.5,14,24.9,14z M24.9,25.2c-2.5,0-4.5-2-4.5-4.5s2-4.5,4.5-4.5
			s4.5,2,4.5,4.5C29.4,23.2,27.4,25.2,24.9,25.2z"/>
		<path d="M15.3,31.8c-0.4,0-0.7-0.1-1-0.4c-0.6-0.6-0.6-1.5,0-2l4.7-4.7c-0.8-1.2-1.2-2.5-1.2-3.9c0-1.9,0.7-3.6,2.1-5
			c1.3-1.3,3.1-2.1,5-2.1c0,0,0,0,0,0c2.7,0,5.2,1.6,6.4,4.1c0.9,1.8,0.9,4,0.1,5.8c-0.9,2-2.6,3.4-4.6,4c-2,0.5-4,0.2-5.7-0.9
			l-4.7,4.7C16.1,31.6,15.7,31.8,15.3,31.8z M24.9,14.3c-1.7,0-3.3,0.7-4.5,1.9c-1.2,1.2-1.9,2.8-1.9,4.5c0,1.3,0.4,2.6,1.2,3.7
			l0.2,0.2l-5.1,5.1c-0.3,0.3-0.3,0.8,0,1.1c0.3,0.3,0.8,0.3,1.1,0l5.1-5.1l0.2,0.2c1.6,1.1,3.5,1.5,5.4,1c1.9-0.5,3.4-1.8,4.2-3.6
			c0.7-1.7,0.7-3.6-0.1-5.3C29.7,15.7,27.4,14.3,24.9,14.3C24.9,14.3,24.9,14.3,24.9,14.3L24.9,14.3C24.9,14.3,24.9,14.3,24.9,14.3z
			 M24.9,25.5L24.9,25.5c-2.6,0-4.8-2.2-4.8-4.8s2.2-4.8,4.8-4.8s4.8,2.2,4.8,4.8C29.7,23.4,27.6,25.5,24.9,25.5z M24.9,16.6
			c-2.3,0-4.2,1.9-4.2,4.2c0,2.3,1.9,4.2,4.2,4.2c2.3,0,4.1-1.9,4.2-4.2C29.1,18.4,27.2,16.6,24.9,16.6z"/>
	</g>
	<g>
		<path d="M17.1,11.8c1.9,0,3.4-1.5,3.4-3.4S19,5,17.1,5s-3.4,1.5-3.4,3.4C13.8,10.3,15.3,11.8,17.1,11.8z M17.1,7.3
			c0.6,0,1.1,0.5,1.1,1.1s-0.5,1.1-1.1,1.1S16,9,16,8.4C16,7.8,16.5,7.3,17.1,7.3z"/>
		<path d="M17.1,12.1L17.1,12.1c-2,0-3.7-1.7-3.7-3.7c0-2,1.7-3.7,3.7-3.7s3.7,1.7,3.7,3.7S19.1,12.1,17.1,12.1z M17.1,5.4
			c-1.7,0-3,1.4-3,3c0,1.7,1.4,3,3,3c1.7,0,3-1.4,3-3S18.8,5.4,17.1,5.4z M17.1,9.8c-0.8,0-1.4-0.6-1.4-1.4c0-0.8,0.6-1.4,1.4-1.4h0
			c0.8,0,1.4,0.6,1.4,1.4S17.9,9.8,17.1,9.8z M17.1,7.6c-0.4,0-0.8,0.4-0.8,0.8c0,0.4,0.4,0.8,0.8,0.8c0.4,0,0.8-0.4,0.8-0.8
			C17.9,8,17.5,7.6,17.1,7.6z"/>
	</g>
	<g>
		<path d="M10.4,25.2H2.6v-6.7l5.6-5.6l5.5,5.5c0.4,0.4,1.1,0.4,1.6,0l0,0c0.4-0.4,0.4-1.1,0-1.6l-5.5-5.5c-0.9-0.9-2.3-0.9-3.2,0
			l-4,4V2.8h22.4v5.6c0,0.6,0.5,1.1,1.1,1.1h0c0.6,0,1.1-0.5,1.1-1.1V2.8c0-1.2-1-2.2-2.2-2.2H2.6c-1.2,0-2.2,1-2.2,2.2v22.4
			c0,1.2,1,2.2,2.2,2.2h7.8c0.6,0,1.1-0.5,1.1-1.1v0C11.5,25.7,11,25.2,10.4,25.2z"/>
		<path d="M10.4,27.7H2.6c-1.4,0-2.6-1.2-2.6-2.6V2.8c0-1.4,1.2-2.6,2.6-2.6h22.4c1.4,0,2.6,1.2,2.6,2.6v5.6c0,0.8-0.6,1.4-1.4,1.4
			c-0.8,0-1.4-0.6-1.4-1.4V3.1H2.9v11.4l3.5-3.5c1-1,2.7-1,3.6,0l5.5,5.5c0.6,0.6,0.6,1.5,0,2c-0.3,0.3-0.6,0.4-1,0.4c0,0,0,0,0,0
			c-0.4,0-0.7-0.2-1-0.4l-5.2-5.2l-5.3,5.3v6.3h7.5c0.8,0,1.4,0.6,1.4,1.4C11.8,27.1,11.2,27.7,10.4,27.7z M2.6,0.9
			c-1.1,0-1.9,0.9-1.9,1.9v22.4c0,1.1,0.9,1.9,1.9,1.9h7.8c0.4,0,0.8-0.4,0.8-0.8c0-0.4-0.4-0.8-0.8-0.8H2.2v-7.2l5.9-5.9l5.7,5.7
			c0.3,0.3,0.8,0.3,1.1,0c0.3-0.3,0.3-0.8,0-1.1l-5.5-5.5c-0.7-0.7-2-0.7-2.7,0l-4.6,4.6V2.5h23v5.9c0,0.4,0.4,0.8,0.8,0.8
			c0.4,0,0.8-0.4,0.8-0.8V2.8c0-1.1-0.9-1.9-1.9-1.9H2.6z"/>
	</g>
</g>
</svg>
