<?xml version="1.0" encoding="UTF-8"?><svg id="Layer_1" xmlns="http://www.w3.org/2000/svg" viewBox="0 0 32 32.01"><defs><style>.cls-1{fill:#3b4bbb;}</style></defs><path class="cls-1" d="m31.4,14.57L17.42.61c-.8-.81-2.11-.81-2.92,0l-2.9,2.9,3.68,3.68c.86-.29,1.84-.09,2.52.59.69.69.88,1.68.59,2.53l3.54,3.55c.86-.3,1.85-.1,2.53.58.96.96.96,2.51,0,3.47-.96.96-2.51.96-3.46,0-.72-.72-.9-1.78-.54-2.66l-3.32-3.3v8.7c.23.11.46.27.65.46.95.96.95,2.51,0,3.47-.96.96-2.52.96-3.48,0-.96-.96-.96-2.51,0-3.47.24-.24.52-.42.81-.54v-8.79c-.29-.12-.56-.3-.8-.54-.72-.72-.9-1.79-.53-2.68l-3.61-3.64L.6,14.51c-.8.8-.8,2.11,0,2.92l13.97,13.97c.81.81,2.11.81,2.92,0l13.91-13.91c.81-.8.81-2.11,0-2.92h0Z"/></svg>