<?xml version="1.0" encoding="utf-8"?>
<!-- Generator: Adobe Illustrator 27.7.0, SVG Export Plug-In . SVG Version: 6.00 Build 0)  -->
<svg version="1.1" id="Layer_1" xmlns="http://www.w3.org/2000/svg" xmlns:xlink="http://www.w3.org/1999/xlink" x="0px" y="0px"
	 viewBox="0 0 32 32" style="enable-background:new 0 0 32 32;" xml:space="preserve">
<g>
	<g>
		<path d="M26.3,13.9h-1c-0.6,0-1,0.5-1,1v0c0,0.6,0.5,1,1,1h1c1.7,0,3.1,1.4,3.1,3.1v3.1c0,0.6,0.5,1,1,1h0c0.6,0,1-0.5,1-1v-3.1
			C31.5,16.2,29.2,13.9,26.3,13.9z"/>
		<path d="M30.5,23.7c-0.9,0-1.5-0.7-1.5-1.5v-3.1c0-1.4-1.2-2.6-2.6-2.6h-1c-0.9,0-1.5-0.7-1.5-1.5s0.7-1.5,1.5-1.5h1
			c3.1,0,5.7,2.5,5.7,5.7v3.1C32,23,31.3,23.7,30.5,23.7z M25.3,14.5c-0.3,0-0.5,0.2-0.5,0.5s0.2,0.5,0.5,0.5h1c2,0,3.6,1.6,3.6,3.6
			v3.1c0,0.3,0.2,0.5,0.5,0.5s0.5-0.2,0.5-0.5v-3.1c0-2.6-2.1-4.6-4.6-4.6H25.3z"/>
	</g>
	<g>
		<path d="M24.3,3.6c1.7,0,3.1,1.4,3.1,3.1S26,9.8,24.3,9.8c-1.7,0-3.1-1.4-3.1-3.1S22.5,3.6,24.3,3.6 M24.3,1.5
			c-2.9,0-5.2,2.3-5.2,5.2s2.3,5.2,5.2,5.2s5.2-2.3,5.2-5.2S27.1,1.5,24.3,1.5z"/>
		<path d="M24.3,12.4c-3.1,0-5.7-2.5-5.7-5.7S21.1,1,24.3,1s5.7,2.5,5.7,5.7S27.4,12.4,24.3,12.4z M24.3,2.1c-2.6,0-4.6,2.1-4.6,4.6
			s2.1,4.6,4.6,4.6s4.6-2.1,4.6-4.6S26.8,2.1,24.3,2.1z M24.3,10.3c-2,0-3.6-1.6-3.6-3.6s1.6-3.6,3.6-3.6s3.6,1.6,3.6,3.6
			S26.2,10.3,24.3,10.3z M24.3,4.1c-1.4,0-2.6,1.2-2.6,2.6s1.2,2.6,2.6,2.6s2.6-1.2,2.6-2.6S25.7,4.1,24.3,4.1z"/>
	</g>
	<g>
		<path d="M22.2,30.5L22.2,30.5c-0.6,0-1-0.5-1-1v-1c0-1.7-1.4-3.1-3.1-3.1h-4.1c-1.7,0-3.1,1.4-3.1,3.1v1c0,0.6-0.5,1-1,1h0
			c-0.6,0-1-0.5-1-1v-1c0-2.9,2.3-5.2,5.2-5.2h4.1c2.9,0,5.2,2.3,5.2,5.2v1C23.2,30,22.8,30.5,22.2,30.5z"/>
		<path d="M22.2,31c-0.9,0-1.5-0.7-1.5-1.5v-1c0-1.4-1.2-2.6-2.6-2.6h-4.1c-1.4,0-2.6,1.2-2.6,2.6v1c0,0.9-0.7,1.5-1.5,1.5
			s-1.5-0.7-1.5-1.5v-1c0-3.1,2.5-5.7,5.7-5.7h4.1c3.1,0,5.7,2.5,5.7,5.7v1C23.7,30.3,23,31,22.2,31z M13.9,24.8h4.1
			c2,0,3.6,1.6,3.6,3.6v1c0,0.3,0.2,0.5,0.5,0.5s0.5-0.2,0.5-0.5v-1c0-2.6-2.1-4.6-4.6-4.6h-4.1c-2.6,0-4.6,2.1-4.6,4.6v1
			c0,0.3,0.2,0.5,0.5,0.5s0.5-0.2,0.5-0.5v-1C10.3,26.4,11.9,24.8,13.9,24.8z"/>
	</g>
	<g>
		<path d="M16,12.9c1.7,0,3.1,1.4,3.1,3.1c0,1.7-1.4,3.1-3.1,3.1s-3.1-1.4-3.1-3.1C12.9,14.3,14.3,12.9,16,12.9 M16,10.8
			c-2.9,0-5.2,2.3-5.2,5.2c0,2.9,2.3,5.2,5.2,5.2s5.2-2.3,5.2-5.2C21.2,13.1,18.9,10.8,16,10.8z"/>
		<path d="M16,21.7c-3.1,0-5.7-2.5-5.7-5.7s2.5-5.7,5.7-5.7s5.7,2.5,5.7,5.7S19.1,21.7,16,21.7z M16,11.4c-2.6,0-4.6,2.1-4.6,4.6
			s2.1,4.6,4.6,4.6c2.6,0,4.6-2.1,4.6-4.6S18.6,11.4,16,11.4z M16,19.6c-2,0-3.6-1.6-3.6-3.6s1.6-3.6,3.6-3.6s3.6,1.6,3.6,3.6
			S18,19.6,16,19.6z M16,13.4c-1.4,0-2.6,1.2-2.6,2.6s1.2,2.6,2.6,2.6s2.6-1.2,2.6-2.6S17.4,13.4,16,13.4z"/>
	</g>
	<g>
		<path d="M6.7,13.9h-1c-2.9,0-5.2,2.3-5.2,5.2v3.1c0,0.6,0.5,1,1,1h0c0.6,0,1-0.5,1-1v-3.1C2.6,17.4,4,16,5.7,16h1c0.6,0,1-0.5,1-1
			v0C7.7,14.4,7.3,13.9,6.7,13.9z"/>
		<path d="M1.5,23.7C0.7,23.7,0,23,0,22.2v-3.1c0-3.1,2.5-5.7,5.7-5.7h1c0.9,0,1.5,0.7,1.5,1.5s-0.7,1.5-1.5,1.5h-1
			c-1.4,0-2.6,1.2-2.6,2.6v3.1C3.1,23,2.4,23.7,1.5,23.7z M5.7,14.5c-2.6,0-4.6,2.1-4.6,4.6v3.1c0,0.3,0.2,0.5,0.5,0.5
			s0.5-0.2,0.5-0.5v-3.1c0-2,1.6-3.6,3.6-3.6h1c0.3,0,0.5-0.2,0.5-0.5S7,14.5,6.7,14.5H5.7z"/>
	</g>
	<g>
		<path d="M7.7,3.6c1.7,0,3.1,1.4,3.1,3.1S9.5,9.8,7.7,9.8S4.6,8.4,4.6,6.7S6,3.6,7.7,3.6 M7.7,1.5c-2.9,0-5.2,2.3-5.2,5.2
			s2.3,5.2,5.2,5.2s5.2-2.3,5.2-5.2S10.6,1.5,7.7,1.5z"/>
		<path d="M7.7,12.4c-3.1,0-5.7-2.5-5.7-5.7S4.6,1,7.7,1s5.7,2.5,5.7,5.7S10.9,12.4,7.7,12.4z M7.7,2.1c-2.6,0-4.6,2.1-4.6,4.6
			s2.1,4.6,4.6,4.6s4.6-2.1,4.6-4.6S10.3,2.1,7.7,2.1z M7.7,10.3c-2,0-3.6-1.6-3.6-3.6s1.6-3.6,3.6-3.6s3.6,1.6,3.6,3.6
			S9.7,10.3,7.7,10.3z M7.7,4.1c-1.4,0-2.6,1.2-2.6,2.6s1.2,2.6,2.6,2.6s2.6-1.2,2.6-2.6S9.2,4.1,7.7,4.1z"/>
	</g>
</g>
</svg>
