<?xml version="1.0" encoding="utf-8"?>
<!-- Generator: Adobe Illustrator 27.7.0, SVG Export Plug-In . SVG Version: 6.00 Build 0)  -->
<svg version="1.1" id="Layer_1" xmlns="http://www.w3.org/2000/svg" xmlns:xlink="http://www.w3.org/1999/xlink" x="0px" y="0px"
	 viewBox="0 0 32 32" style="enable-background:new 0 0 32 32;" xml:space="preserve">
<g>
	<g>
		<path d="M26.5,0.7c2.6,0,4.8,2.1,4.8,4.8v21.1c0,2.6-2.1,4.8-4.8,4.8H6.4c-3.1,0-5.6-2.5-5.7-5.5l0-0.2v-7.7
			c0-3.1,2.5-5.6,5.5-5.7l0.2,0h5.7V5.5c0-2.6,2.1-4.8,4.8-4.8H26.5z M12.2,14.1H6.4c-2.1,0-3.7,1.6-3.8,3.6l0,0.2v7.7
			c0,2.1,1.6,3.7,3.6,3.8l0.2,0l6.7,0c-0.6-0.8-1-1.8-1-2.9V14.1z M17,2.6L17,2.6c-1.6,0-2.9,1.2-2.9,2.7l0,0.2v21.1
			c0,1.5,1.2,2.8,2.7,2.9l0.2,0h9.6c1.5,0,2.8-1.2,2.9-2.7l0-0.2V5.5c0-1.5-1.2-2.8-2.7-2.9l-0.2,0l-0.1,0c-0.2,0.6-0.7,1-1.4,1
			h-6.7C17.8,3.6,17.2,3.2,17,2.6z M25.6,15c0.5,0,1,0.4,1,1c0,0.5-0.4,1-1,1h-7.7c-0.5,0-1-0.4-1-1c0-0.5,0.4-1,1-1H25.6z
			 M22.7,10.3c0.5,0,1,0.4,1,1c0,0.5-0.4,1-1,1h-4.8c-0.5,0-1-0.4-1-1c0-0.5,0.4-1,1-1H22.7z"/>
		<path d="M26.5,32H6.4C3,32,0.1,29.3,0,25.8l0-0.2v-7.7c0-3.5,2.7-6.3,6.2-6.4l0.2,0h5.1v-6c0-3,2.5-5.5,5.5-5.5h9.6
			c3,0,5.5,2.5,5.5,5.5v21.1C32,29.5,29.5,32,26.5,32z M6.4,12.8l-0.2,0c-2.7,0.1-4.9,2.3-4.9,5.1l0,7.9c0.1,2.7,2.3,4.9,5.1,4.9
			h20.1c2.3,0,4.1-1.8,4.1-4.1V5.5c0-2.3-1.8-4.1-4.1-4.1H17c-2.3,0-4.1,1.8-4.1,4.1v7.4H6.4z M14.5,30.1l-8.3,0
			C3.8,30,1.9,28,1.9,25.6l0-7.9C2,15.3,4,13.4,6.4,13.4h6.4v13.1c0,0.9,0.3,1.8,0.8,2.5L14.5,30.1z M6.4,14.8c-1.7,0-3.1,1.3-3.1,3
			l0,0.2v7.6c0,1.7,1.3,3.1,3,3.1l0.2,0l5.5,0c-0.3-0.7-0.5-1.4-0.5-2.2V14.8H6.4z M26.5,30.1l-9.8,0c-1.9-0.1-3.4-1.7-3.4-3.5
			l0-21.3c0.1-1.9,1.7-3.4,3.5-3.4h0.5l0.2,0.5c0.1,0.3,0.4,0.5,0.7,0.5h6.7c0.3,0,0.6-0.2,0.7-0.5L26,1.9l0.5,0l0.3,0
			c1.9,0.1,3.4,1.7,3.4,3.5l0,21.3C30,28.6,28.4,30.1,26.5,30.1z M16.6,3.3c-1,0.1-1.8,1-1.9,2l0,0.1v21c0,1.2,0.9,2.1,2.1,2.2
			l0.2,0h9.6c1.2,0,2.1-0.9,2.2-2.1l0-0.1v-21c0-1.1-0.8-2-1.9-2.2c-0.4,0.6-1,0.9-1.8,0.9h-6.7C17.7,4.2,17,3.9,16.6,3.3z
			 M25.6,17.6h-7.7c-0.9,0-1.6-0.7-1.6-1.6s0.7-1.6,1.6-1.6h7.7c0.9,0,1.6,0.7,1.6,1.6S26.5,17.6,25.6,17.6z M17.9,15.7
			c-0.2,0-0.3,0.1-0.3,0.3c0,0.2,0.1,0.3,0.3,0.3h7.7c0.2,0,0.3-0.1,0.3-0.3c0-0.2-0.1-0.3-0.3-0.3H17.9z M22.7,12.8h-4.8
			c-0.9,0-1.6-0.7-1.6-1.6s0.7-1.6,1.6-1.6h4.8c0.9,0,1.6,0.7,1.6,1.6S23.6,12.8,22.7,12.8z M17.9,10.9c-0.2,0-0.3,0.1-0.3,0.3
			s0.1,0.3,0.3,0.3h4.8c0.2,0,0.3-0.1,0.3-0.3s-0.1-0.3-0.3-0.3H17.9z"/>
	</g>
</g>
</svg>
