<?xml version="1.0" encoding="UTF-8"?><svg id="Layer_1" xmlns="http://www.w3.org/2000/svg" viewBox="0 0 235 235.6"><defs><style>.cls-1{fill:#3b4bbb;}</style></defs><path class="cls-1" d="m0,117.5c0-16.7,3.3-32.7,10-48l56,154c-19.7-9.7-35.6-23.9-47.7-42.8S0,140.8,0,117.5Zm197-6c0,10.3-3,23-9,38l-12,39.5-42.5-126.5c1.7,0,3.3-.1,5-.2s3.2-.2,4.5-.2,2.7-.2,4-.5c3.3-.7,4.8-2.5,4.5-5.5s-2-4.5-5-4.5c-4,.3-7.8.7-11.5,1-3.3.3-6.8.5-10.2.5h-19.5l-10.3-.6-11-1c-3.3,0-5.1,1.6-5.2,4.8s1.2,4.9,4.2,5.2c1.3.3,2.7.5,4,.5s2.7.1,4,.2,2.8.2,4.5.2l18.5,50-26,77.6L45.5,62.5c1.7,0,3.3-.1,5-.2s3.2-.3,4.5-.3,2.7-.2,4-.5c3-.7,4.4-2.5,4.2-5.5s-1.9-4.5-5.2-4.5l-11,1c-3.3.3-6.8.5-10.5.5h-17.5c10.7-16,24.6-28.8,41.8-38.5S96.8,0,117.5,0c15.3,0,29.8,2.8,43.2,8.2,13.4,5.4,25.6,13.1,36.3,22.8h-1.5c-5.7,0-10.4,2.1-14.2,6.2s-5.8,8.9-5.8,14.2c0,5,1.2,9.7,3.5,14,2.3,4.3,5,9,8,14,2.3,3.7,4.6,8.1,6.8,13.2s3.2,11.6,3.2,18.9Zm-41.5,115.5c.3.3.5.6.5.8s.2.4.5.8c-13,4.7-26,7-39,7-5.7,0-11.3-.4-17-1.2s-11.2-2.1-16.5-3.8l35.5-102.6,36,99ZM220.5,61c9.7,17.3,14.5,36.2,14.5,56.5,0,22-5.3,41.9-16,59.7s-24.8,31.9-42.5,42.2l36-104c3.3-8.7,5.7-16.4,7-23.2s2-13.1,2-18.8c0-2.3-.1-4.5-.2-6.5s-.5-3.9-.8-5.9Z"/></svg>