<?xml version="1.0" encoding="UTF-8"?><svg id="Layer_1" xmlns="http://www.w3.org/2000/svg" viewBox="0 0 24 24"><defs><style>.cls-1{fill:none;}.cls-2{fill:#132fba;}</style></defs><path class="cls-1" d="m0,0h24v24H0V0Z"/><path class="cls-2" d="m17.94,9.88l-6.79,6.79c-.47.47-1.22.47-1.69,0l-3.4-3.4c-.47-.47-.47-1.22,0-1.69.47-.47,1.22-.47,1.69,0l2.54,2.54,5.94-5.94c.47-.47,1.22-.47,1.69,0,.48.47.48,1.22.01,1.69Zm-15.54,2.12c0-2.8,1.22-5.3,3.14-7.06l1.84,1.84c.37.37,1.02.11,1.02-.43V1.2c0-.34-.26-.6-.6-.6H2.65c-.54,0-.8.65-.42,1.02l1.61,1.62C1.49,5.42,0,8.53,0,12,0,17.7,3.98,22.48,9.31,23.7c.76.17,1.49-.4,1.49-1.18,0-.56-.4-1.04-.95-1.18-4.26-.97-7.45-4.79-7.45-9.35Zm21.6,0c0-5.7-3.98-10.48-9.31-11.7-.76-.17-1.49.4-1.49,1.18,0,.56.4,1.04.95,1.18,4.26.97,7.45,4.79,7.45,9.35,0,2.8-1.22,5.3-3.14,7.06l-1.84-1.84c-.37-.37-1.02-.11-1.02.43v5.15c0,.34.26.6.6.6h5.15c.54,0,.8-.65.42-1.02l-1.61-1.62c2.35-2.18,3.84-5.29,3.84-8.76Z"/></svg>