<?xml version="1.0" encoding="utf-8"?>
<!-- Generator: Adobe Illustrator 27.7.0, SVG Export Plug-In . SVG Version: 6.00 Build 0)  -->
<svg version="1.1" id="Layer_1" xmlns="http://www.w3.org/2000/svg" xmlns:xlink="http://www.w3.org/1999/xlink" x="0px" y="0px"
	 viewBox="0 0 24 24" style="enable-background:new 0 0 24 24;" xml:space="preserve">
<style type="text/css">
	.st0{fill:none;}
</style>
<path class="st0" d="M0,0h24v24H0V0z"/>
<path d="M17.9,9.9l-6.8,6.8c-0.5,0.5-1.2,0.5-1.7,0l-3.4-3.4c-0.5-0.5-0.5-1.2,0-1.7c0.5-0.5,1.2-0.5,1.7,0l2.5,2.5l5.9-5.9
	c0.5-0.5,1.2-0.5,1.7,0C18.4,8.7,18.4,9.4,17.9,9.9z M2.4,12c0-2.8,1.2-5.3,3.1-7.1l1.8,1.8c0.4,0.4,1,0.1,1-0.4V1.2
	c0-0.3-0.3-0.6-0.6-0.6H2.7c-0.5,0-0.8,0.6-0.4,1l1.6,1.6C1.5,5.4,0,8.5,0,12c0,5.7,4,10.5,9.3,11.7c0.8,0.2,1.5-0.4,1.5-1.2
	c0-0.6-0.4-1-0.9-1.2C5.6,20.4,2.4,16.6,2.4,12z M24,12c0-5.7-4-10.5-9.3-11.7c-0.8-0.2-1.5,0.4-1.5,1.2c0,0.6,0.4,1,0.9,1.2
	c4.3,1,7.5,4.8,7.5,9.3c0,2.8-1.2,5.3-3.1,7.1l-1.8-1.8c-0.4-0.4-1-0.1-1,0.4v5.1c0,0.3,0.3,0.6,0.6,0.6h5.1c0.5,0,0.8-0.6,0.4-1
	l-1.6-1.6C22.5,18.6,24,15.5,24,12z"/>
</svg>
