<?xml version="1.0" encoding="UTF-8"?><svg id="Layer_1" xmlns="http://www.w3.org/2000/svg" viewBox="0 0 32 31.52"><defs><style>.cls-1{fill:#132fba;}</style></defs><path class="cls-1" d="m24.94,13.75c-3.7,0-6.71,2.99-6.71,6.69,0,1.4.43,2.77,1.25,3.91l-4.93,4.93c-.44.44-.44,1.15,0,1.58h0c.44.44,1.15.44,1.58,0l4.93-4.93c3.38,2.41,8.24,1.23,10.04-2.77.79-1.75.77-3.81-.06-5.53-1.18-2.47-3.58-3.88-6.1-3.87Zm0,11.19c-2.47,0-4.48-2-4.48-4.48s2-4.48,4.48-4.48,4.48,2,4.48,4.48c0,2.47-2.01,4.47-4.48,4.48Z"/><path class="cls-1" d="m15.34,31.52c-.37,0-.74-.14-1.02-.42-.56-.56-.56-1.48,0-2.04l4.74-4.74c-.76-1.15-1.16-2.48-1.15-3.87,0-1.88.74-3.64,2.07-4.97,1.33-1.32,3.09-2.05,4.96-2.05,0,0,.01,0,.02,0,2.74,0,5.19,1.56,6.39,4.06.86,1.8.89,3.97.06,5.81-.88,1.96-2.56,3.41-4.6,3.96-1.96.53-4.01.2-5.69-.9l-4.74,4.74c-.28.28-.65.42-1.02.42Zm9.6-17.44c-1.7,0-3.3.66-4.5,1.86-1.21,1.2-1.87,2.8-1.88,4.51,0,1.34.41,2.63,1.19,3.72l.16.23-5.13,5.13c-.31.31-.31.81,0,1.12s.81.31,1.12,0l5.13-5.13.22.16c1.56,1.11,3.52,1.46,5.38.96,1.85-.5,3.38-1.81,4.18-3.6.75-1.66.73-3.63-.06-5.26-1.09-2.28-3.31-3.69-5.8-3.69h-.02Zm.01,11.19h0c-2.65,0-4.8-2.15-4.8-4.8s2.15-4.8,4.8-4.8,4.8,2.15,4.8,4.8c0,2.65-2.16,4.8-4.8,4.8Zm0-8.95c-2.29,0-4.15,1.86-4.15,4.15s1.86,4.15,4.15,4.15c2.29,0,4.15-1.86,4.15-4.15,0-2.29-1.86-4.15-4.15-4.15Z"/><path class="cls-1" d="m17.11,11.52c1.85,0,3.36-1.5,3.36-3.36s-1.5-3.36-3.36-3.36-3.36,1.5-3.36,3.36c0,1.85,1.5,3.36,3.36,3.36Zm0-4.48c.62,0,1.12.5,1.12,1.12s-.5,1.12-1.12,1.12-1.12-.5-1.12-1.12c0-.62.5-1.12,1.12-1.12Z"/><path class="cls-1" d="m17.11,11.84h0c-2.03,0-3.68-1.65-3.68-3.68,0-2.03,1.65-3.68,3.68-3.68s3.68,1.65,3.68,3.68-1.65,3.68-3.68,3.68Zm0-6.71c-1.67,0-3.03,1.36-3.03,3.03,0,1.67,1.36,3.03,3.03,3.03,1.67,0,3.03-1.36,3.03-3.03s-1.36-3.03-3.03-3.03Zm0,4.48c-.8,0-1.44-.65-1.44-1.44,0-.8.65-1.44,1.44-1.44h0c.8,0,1.44.65,1.44,1.44s-.65,1.44-1.44,1.44Zm0-2.24c-.44,0-.79.36-.79.79,0,.44.36.79.79.79s.79-.36.79-.79-.36-.79-.79-.79Z"/><path class="cls-1" d="m10.4,24.94H2.56v-6.72l5.6-5.59,5.46,5.46c.44.44,1.15.44,1.59,0h0c.44-.44.44-1.15,0-1.58l-5.46-5.46c-.87-.87-2.29-.87-3.16,0l-4.01,4.01V2.56h22.38v5.6c0,.62.5,1.12,1.12,1.12h0c.62,0,1.12-.5,1.12-1.12V2.56c0-1.24-1-2.24-2.24-2.24H2.56c-1.24,0-2.24,1-2.24,2.24v22.38c0,1.24,1,2.24,2.24,2.24h7.83c.62,0,1.12-.5,1.12-1.12h0c0-.62-.5-1.12-1.12-1.12Z"/><path class="cls-1" d="m10.4,27.51H2.56c-1.41,0-2.56-1.15-2.56-2.56V2.56C0,1.15,1.15,0,2.56,0h22.38c1.41,0,2.56,1.15,2.56,2.56v5.6c0,.8-.65,1.44-1.45,1.44s-1.44-.65-1.44-1.44V2.89H2.89v11.39l3.46-3.46c.97-.97,2.65-.97,3.62,0l5.46,5.46c.56.56.56,1.48,0,2.04-.27.27-.64.42-1.02.42h0c-.39,0-.75-.15-1.02-.42l-5.23-5.23-5.27,5.27v6.26h7.51c.8,0,1.44.65,1.44,1.45s-.65,1.44-1.44,1.44ZM2.56.65c-1.05,0-1.91.86-1.91,1.91v22.38c0,1.05.86,1.91,1.91,1.91h7.83c.44,0,.79-.36.79-.79s-.36-.79-.79-.79H2.24v-7.18l5.92-5.92,5.69,5.69c.3.3.82.3,1.12,0,.31-.31.31-.81,0-1.12l-5.46-5.46c-.75-.75-1.96-.75-2.7,0l-4.57,4.57V2.24h23.03v5.92c0,.44.36.79.79.79s.79-.36.79-.79V2.56c0-1.05-.86-1.91-1.91-1.91H2.56Z"/></svg>