<?xml version="1.0" encoding="UTF-8"?><svg id="Layer_1" xmlns="http://www.w3.org/2000/svg" viewBox="0 0 32 32"><defs><style>.cls-1{fill:#132fba;}</style></defs><path class="cls-1" d="m26.53.68c2.64,0,4.79,2.14,4.79,4.79v21.07c0,2.64-2.14,4.79-4.79,4.79H6.42c-3.1,0-5.63-2.46-5.74-5.53v-.22s0-7.66,0-7.66c0-3.1,2.46-5.63,5.53-5.74h.22s5.75,0,5.75,0v-6.7c0-2.64,2.14-4.79,4.79-4.79h9.58Zm-14.36,13.41h-5.75c-2.05,0-3.73,1.61-3.83,3.64v.19s0,7.66,0,7.66c0,2.05,1.61,3.73,3.64,3.83h.19s6.7,0,6.7,0c-.6-.8-.96-1.8-.96-2.87v-12.45Zm4.87-11.49h-.08c-1.53,0-2.78,1.2-2.87,2.7v.17s0,21.07,0,21.07c0,1.53,1.2,2.78,2.7,2.87h.17s9.58,0,9.58,0c1.53,0,2.78-1.2,2.87-2.7v-.17s0-21.07,0-21.07c0-1.53-1.2-2.78-2.7-2.87h-.17s-.08,0-.08,0c-.2.56-.73.96-1.35.96h-6.7c-.63,0-1.16-.4-1.35-.96Zm8.54,12.45c.53,0,.96.43.96.96s-.43.96-.96.96h-7.66c-.53,0-.96-.43-.96-.96s.43-.96.96-.96h7.66Zm-2.87-4.79c.53,0,.96.43.96.96s-.43.96-.96.96h-4.79c-.53,0-.96-.43-.96-.96s.43-.96.96-.96h4.79Z"/><path class="cls-1" d="m26.53,32H6.42C2.95,32,.13,29.28,0,25.82v-.23s0-7.67,0-7.67c0-3.47,2.72-6.29,6.18-6.42h.23s5.08,0,5.08,0v-6.02c0-3.01,2.45-5.47,5.47-5.47h9.58c3.01,0,5.47,2.45,5.47,5.47v21.07c0,3.01-2.45,5.47-5.47,5.47ZM6.42,12.85h-.2c-2.72.1-4.86,2.33-4.86,5.07v7.86c.1,2.72,2.33,4.86,5.07,4.86h20.11c2.27,0,4.11-1.84,4.11-4.11V5.47c0-2.27-1.84-4.11-4.11-4.11h-9.58c-2.27,0-4.11,1.84-4.11,4.11v7.38h-6.42Zm8.06,17.24H6.21c-2.42-.13-4.3-2.1-4.3-4.51v-7.87c.12-2.42,2.1-4.3,4.51-4.3h6.42v13.13c0,.9.28,1.75.82,2.47l.82,1.09ZM6.42,14.76c-1.68,0-3.07,1.32-3.15,2.99v.17s0,7.64,0,7.64c0,1.68,1.32,3.07,2.99,3.15h.18s5.51,0,5.51,0c-.3-.69-.46-1.43-.46-2.2v-11.77h-5.07Zm20.11,15.32h-9.77c-1.89-.12-3.36-1.67-3.36-3.55V5.28c.11-1.9,1.67-3.36,3.55-3.36h.48l.24.45c.11.3.39.51.72.51h6.7c.32,0,.61-.2.71-.51l.16-.45h.48s.28,0,.28,0c1.89.11,3.36,1.67,3.36,3.55v21.26c-.12,1.89-1.67,3.36-3.55,3.36ZM16.64,3.3c-1.01.15-1.81.99-1.87,2.04v.15s0,21.05,0,21.05c0,1.16.91,2.12,2.06,2.19h.15s9.55,0,9.55,0c1.16,0,2.12-.91,2.19-2.07v-.15s0-21.05,0-21.05c0-1.1-.81-2.02-1.88-2.17-.39.57-1.04.93-1.76.93h-6.7c-.71,0-1.37-.36-1.76-.94Zm8.94,14.34h-7.66c-.9,0-1.64-.73-1.64-1.64s.73-1.64,1.64-1.64h7.66c.9,0,1.64.73,1.64,1.64s-.73,1.64-1.64,1.64Zm-7.66-1.92c-.15,0-.28.12-.28.28s.12.28.28.28h7.66c.15,0,.28-.13.28-.28s-.13-.28-.28-.28h-7.66Zm4.79-2.87h-4.79c-.9,0-1.64-.73-1.64-1.64s.73-1.64,1.64-1.64h4.79c.9,0,1.64.73,1.64,1.64s-.73,1.64-1.64,1.64Zm-4.79-1.92c-.15,0-.28.12-.28.28s.12.28.28.28h4.79c.15,0,.28-.13.28-.28s-.13-.28-.28-.28h-4.79Z"/></svg>