<?xml version="1.0" encoding="UTF-8"?><svg id="Layer_1" xmlns="http://www.w3.org/2000/svg" viewBox="0 0 512 510"><defs><style>.cls-1{fill:#3b4bbb;}</style></defs><path class="cls-1" d="m379,0C379.33,0,379.67,0,380,0c.3.33.54.8.91.97,15.32,7.19,30.7,14.26,45.97,21.56,11.09,5.31,21.99,11.02,33.06,16.38,11.66,5.65,23.58,10.79,35.06,16.79,4.03,2.11,7.47,5.76,10.45,9.32,2.7,3.23,4.4,7.29,6.54,10.98v359c-.66.48-1.57.81-1.93,1.46-1.47,2.68-2.65,5.52-4.16,8.17-5.94,10.39-17.23,13.23-26.77,18.19-15.99,8.31-32.52,15.59-48.81,23.31-11.95,5.66-23.88,11.35-35.83,17.02-4.83,2.29-9.67,4.56-14.5,6.85h-13c-6.2-4.34-12.75-8.26-18.53-13.1-9.6-8.04-18.74-16.63-28.01-25.07-19.54-17.78-39.06-35.6-58.55-53.43-12.92-11.81-25.74-23.72-38.68-35.52-21.69-19.79-43.49-39.45-65.11-59.3-7.93-7.29-7.73-7.42-16.32-.9-26.16,19.86-52.24,39.82-78.58,59.42-8.13,6.05-19.2,7.95-28.06-.34-4.07-3.81-8.74-7.01-12.56-11.04C14.92,362.62,4.31,357.17,0,346c0-4,0-8,0-12,2.61-3.44,4.8-7.31,7.89-10.24,13.56-12.89,27.35-25.54,41.12-38.22,4.59-4.23,9.39-8.24,14.01-12.44,6.48-5.89,12.88-11.86,20.34-18.74-1.43-.76-2.48-1.07-3.2-1.73-12.68-11.6-25.27-23.3-37.98-34.87-8.91-8.11-18.21-15.8-26.85-24.18C9.76,188.19,5.08,181.89,0,176c0-4,0-8,0-12,3.35-4.5,6.18-9.53,10.15-13.39,7.87-7.64,16.58-14.42,24.56-21.96,7.21-6.81,18.85-7.36,26.74-1.65,6.36,4.6,12.69,9.26,18.95,14,22.33,16.93,44.61,33.93,67.02,50.76.96.72,3.52.55,4.51-.24,5.01-4,9.82-8.27,14.58-12.59,18.79-17.06,37.54-34.16,56.3-51.25,11.55-10.53,23.09-21.09,34.63-31.64,15.14-13.83,30.3-27.63,45.4-41.5,14.14-13,28.07-26.24,42.4-39.02,5.26-4.69,11.38-8.43,17.19-12.49,1.72-1.21,3.71-2.04,5.58-3.04,1,0,2,0,3,0h8Zm4.75,371.35v-232.53c-51.58,39.11-102.31,77.57-153.35,116.28,51.21,38.82,101.82,77.19,153.35,116.25Z"/></svg>